HIERARCHY
ROOT Hips
{
	OFFSET 0.000000 0.000000 0.000000
	CHANNELS 6 Xposition Yposition Zposition Zrotation Yrotation Xrotation 
	JOINT LHipJoint
	{
		OFFSET 0.000000 0.000000 0.000000
		CHANNELS 3 Zrotation Yrotation Xrotation
		JOINT LeftUpLeg
		{
			OFFSET 1.363060 -1.794630 0.839290
			CHANNELS 3 Zrotation Yrotation Xrotation
			JOINT LeftLeg
			{
				OFFSET 2.448110 -6.726130 0.000000
				CHANNELS 3 Zrotation Yrotation Xrotation
				JOINT LeftFoot
				{
					OFFSET 2.562200 -7.039590 0.000000
					CHANNELS 3 Zrotation Yrotation Xrotation
					JOINT LeftToeBase
					{
						OFFSET 0.157640 -0.433110 2.322550
						CHANNELS 3 Zrotation Yrotation Xrotation
						End Site
						{
							OFFSET 0.000000 0.000000 0.000000
						}
					}
				}
			}
		}
	}
	JOINT RHipJoint
	{
		OFFSET 0.000000 0.000000 0.000000
		CHANNELS 3 Zrotation Yrotation Xrotation
		JOINT RightUpLeg
		{
			OFFSET -1.305520 -1.794630 0.839290
			CHANNELS 3 Zrotation Yrotation Xrotation
			JOINT RightLeg
			{
				OFFSET -2.542530 -6.985550 0.000000
				CHANNELS 3 Zrotation Yrotation Xrotation
				JOINT RightFoot
				{
					OFFSET -2.568260 -7.056230 0.000000
					CHANNELS 3 Zrotation Yrotation Xrotation
					JOINT RightToeBase
					{
						OFFSET -0.164730 -0.452590 2.363150
						CHANNELS 3 Zrotation Yrotation Xrotation
						End Site
						{
							OFFSET 0.000000 0.000000 0.000000
						}
					}
				}
			}
		}
	}
	JOINT LowerBack
	{
		OFFSET 0.000000 0.000000 0.000000
		CHANNELS 3 Zrotation Yrotation Xrotation
		JOINT Spine
		{
			OFFSET 0.028270 2.035590 -0.193380
			CHANNELS 3 Zrotation Yrotation Xrotation
			JOINT Spine1
			{
				OFFSET 0.056720 2.048850 -0.042750
				CHANNELS 3 Zrotation Yrotation Xrotation
				JOINT Neck
				{
					OFFSET 0.000000 0.000000 0.000000
					CHANNELS 3 Zrotation Yrotation Xrotation
					JOINT Neck1
					{
						OFFSET -0.054170 1.746240 0.172020
						CHANNELS 3 Zrotation Yrotation Xrotation
						JOINT Head
						{
							OFFSET 0.104070 1.761360 -0.123970
							CHANNELS 3 Zrotation Yrotation Xrotation
							End Site
							{
								OFFSET 0.000000 0.000000 0.000000
							}
						}
					}
				}
				JOINT LeftShoulder
				{
					OFFSET 0.000000 0.000000 0.000000
					CHANNELS 3 Zrotation Yrotation Xrotation
					JOINT LeftArm
					{
						OFFSET 3.362410 1.200890 -0.311210
						CHANNELS 3 Zrotation Yrotation Xrotation
						JOINT LeftForeArm
						{
							OFFSET 4.983000 -0.000000 -0.000000
							CHANNELS 3 Zrotation Yrotation Xrotation
							JOINT LeftHand
							{
								OFFSET 3.483560 -0.000000 -0.000000
								CHANNELS 3 Zrotation Yrotation Xrotation
								JOINT LeftFingerBase
								{
									OFFSET 0.000000 0.000000 0.000000
									CHANNELS 3 Zrotation Yrotation Xrotation
									JOINT LeftHandIndex1
									{
										OFFSET 0.715260 -0.000000 -0.000000
										CHANNELS 3 Zrotation Yrotation Xrotation
										End Site
										{
											OFFSET 0.000000 0.000000 0.000000
										}
									}
								}
								JOINT LThumb
								{
									OFFSET 0.000000 0.000000 0.000000
									CHANNELS 3 Zrotation Yrotation Xrotation
									End Site
									{
										OFFSET 0.000000 0.000000 0.000000
									}
								}
							}
						}
					}
				}
				JOINT RightShoulder
				{
					OFFSET 0.000000 0.000000 0.000000
					CHANNELS 3 Zrotation Yrotation Xrotation
					JOINT RightArm
					{
						OFFSET -3.136600 1.374050 -0.404650
						CHANNELS 3 Zrotation Yrotation Xrotation
						JOINT RightForeArm
						{
							OFFSET -5.241900 -0.000000 -0.000000
							CHANNELS 3 Zrotation Yrotation Xrotation
							JOINT RightHand
							{
								OFFSET -3.444170 -0.000000 -0.000000
								CHANNELS 3 Zrotation Yrotation Xrotation
								JOINT RightFingerBase
								{
									OFFSET 0.000000 0.000000 0.000000
									CHANNELS 3 Zrotation Yrotation Xrotation
									JOINT RightHandIndex1
									{
										OFFSET -0.622530 -0.000000 -0.000000
										CHANNELS 3 Zrotation Yrotation Xrotation
										End Site
										{
											OFFSET 0.000000 0.000000 0.000000
										}
									}
								}
								JOINT RThumb
								{
									OFFSET 0.000000 0.000000 0.000000
									CHANNELS 3 Zrotation Yrotation Xrotation
									End Site
									{
										OFFSET 0.000000 0.000000 0.000000
									}
								}
							}
						}
					}
				}
			}
		}
	}
}
MOTION
Frames: 5
Frame Time: 0.008333
0.481998 29.570772 -5.633806 3.952193 -62.807384 5.644876 -3.375748 1.125947 1.433178 -16.111689 -10.485192 -17.368299 -1.067589 5.342453 17.803319 2.362395 -11.098036 8.527851 0.575000 -4.856100 -13.498600 0.871437 -1.715137 0.884226 11.504189 6.334054 -26.103534 -4.753569 -13.750618 42.930660 -1.019103 2.051030 -7.725416 -0.150700 -2.501600 6.894000 -0.825390 1.451458 3.158126 0.806236 1.422978 -0.735129 2.417983 1.200533 0.040724 -7.464107 5.321918 -10.030771 -1.596515 9.252797 33.693069 1.682300 1.347800 17.509500 -10.931032 -1.274217 -1.757753 -74.572234 0.993091 5.304479 12.547975 -24.217878 -3.355239 -0.464247 -1.871195 4.345232 19.061794 23.202664 8.515100 -7.125000 0.000000 0.000000 -11.124400 56.101800 -3.056100 9.543951 1.536334 -1.439696 66.669257 1.349675 11.857161 -19.210032 27.100101 -5.949244 0.843813 -0.639049 15.394609 -23.183089 4.081484 -2.005700 7.125000 0.000000 0.000000 1.867000 -25.075400 0.900200 
0.461948 29.561760 -5.667525 3.944876 -61.222999 5.525493 -3.385591 1.140347 1.416829 -15.981442 -11.025378 -17.271228 -1.043778 5.399293 17.986062 2.471079 -11.981290 8.510038 0.554600 -4.770400 -13.255000 0.933306 -1.737508 0.920185 11.006994 7.275070 -25.379613 -4.426369 -13.408165 41.665639 -1.051191 2.140903 -7.763795 -0.117400 -2.208800 6.083100 -0.853703 1.197821 3.608546 0.833783 1.086851 -0.759126 2.454950 1.038573 -0.221633 -7.314489 5.375522 -9.918691 -1.840703 9.347366 33.620470 1.555800 1.389300 17.460200 -10.929881 -1.286301 -1.749002 -74.553752 0.976761 5.052056 12.426516 -24.038483 -3.303228 -0.461705 -1.857226 4.298109 18.901778 22.821240 8.317300 -7.125000 0.000000 0.000000 -11.104000 55.669600 -2.933500 9.505434 1.521404 -1.461655 66.632747 0.892841 13.131001 -19.822113 27.814150 -6.275172 0.834336 -0.612181 13.980955 -23.101836 4.580503 -2.216400 7.125000 0.000000 0.000000 1.952600 -24.536700 0.966000 
0.435925 29.534217 -5.704182 3.943792 -59.766318 5.497061 -3.394577 1.148767 1.387095 -15.788115 -11.721126 -17.189612 -1.023119 5.450141 18.154833 2.526627 -12.526571 8.736986 0.386700 -3.993100 -11.057200 0.995992 -1.752539 0.949190 10.738549 7.956647 -24.881018 -4.103772 -13.071564 40.430520 -0.856274 1.299669 -7.551702 -0.000100 0.078500 -0.215700 -0.991865 0.983076 3.921679 0.877715 0.796353 -0.786849 2.587375 0.898231 -0.411918 -7.165265 5.408829 -9.937162 -2.165554 9.449952 33.569731 1.392000 1.420800 17.466600 -10.920056 -1.303502 -1.742170 -74.657557 0.990106 4.972125 12.359257 -23.935994 -3.274764 -0.427795 -1.871026 3.560631 18.514663 22.921717 8.166900 -7.125000 0.000000 0.000000 -11.565900 55.695800 -3.065200 9.479580 1.503270 -1.480669 66.584975 0.637902 14.113280 -20.336400 28.397178 -6.552811 0.813329 -0.593011 12.516053 -22.855900 5.232828 -2.476300 7.125000 0.000000 0.000000 2.170500 -23.829200 1.109300 
0.396433 29.521053 -5.733142 3.777759 -58.614534 5.685251 -3.393179 1.154809 1.352383 -15.480919 -12.405690 -17.148918 -0.990970 5.533354 18.405533 2.545610 -12.752376 9.049603 0.185100 -2.770900 -7.641500 1.069990 -1.770257 0.965112 10.352813 9.137681 -24.272024 -3.794704 -12.723493 39.203050 -0.770591 1.000550 -7.200973 -0.088500 1.918900 -5.281700 -1.052739 0.857628 3.878659 0.928138 0.626839 -0.770622 2.705556 0.811538 -0.339416 -7.281912 5.424647 -9.944967 -2.193505 9.532972 33.464210 1.419300 1.446400 17.393300 -10.905479 -1.300457 -1.736546 -74.843761 0.949309 4.161833 12.391492 -23.964207 -3.289123 -0.393386 -1.891793 4.351707 17.636574 23.736132 7.976700 -7.125000 0.000000 0.000000 -12.954500 56.339700 -3.645200 9.456601 1.501031 -1.491961 66.786821 0.656832 15.131816 -20.684173 28.735523 -6.717864 0.963230 -0.500992 12.948535 -24.105275 2.753285 -1.421200 7.125000 0.000000 0.000000 1.104800 -26.634500 0.492400 
0.355524 29.521661 -5.754710 3.913843 -57.333008 5.718702 -3.389135 1.146200 1.315463 -15.426704 -12.879172 -17.270184 -0.960902 5.609502 18.639337 2.605747 -13.421671 9.268588 0.131400 -2.336600 -6.436900 1.126559 -1.786613 0.983595 9.652321 10.359639 -23.679012 -3.496663 -12.367649 37.960383 -0.899398 1.634956 -6.806321 -0.187400 2.788200 -7.689700 -1.197348 0.676189 3.678316 0.945121 0.377014 -0.794061 2.830870 0.687261 -0.237679 -7.507380 5.417310 -9.890792 -2.077612 9.575919 33.454836 1.524500 1.449400 17.345000 -10.903777 -1.289460 -1.739747 -74.939069 0.965957 3.321463 12.424406 -24.001297 -3.308951 -0.353289 -1.903536 5.790853 16.354284 24.464268 7.531100 -7.125000 0.000000 0.000000 -14.776300 56.787000 -4.333900 9.446573 1.515984 -1.493511 67.166678 0.981325 14.949540 -20.637949 28.639398 -6.678378 1.023122 -0.485780 13.681522 -24.687800 1.699409 -0.935800 7.125000 0.000000 0.000000 0.605300 -27.828700 0.252700 
